<svg width="68" height="77" viewBox="0 0 68 77" fill="none" xmlns="http://www.w3.org/2000/svg">
<path d="M10 0.5H58C63.2467 0.5 67.5 4.7533 67.5 10V67C67.5 72.2467 63.2467 76.5 58 76.5H10C4.7533 76.5 0.5 72.2467 0.5 67V10C0.5 4.7533 4.7533 0.5 10 0.5Z" fill="white" stroke="black"/>
<path d="M31 23V13C31 12.7348 31.1054 12.4804 31.2929 12.2929C31.4804 12.1054 31.7348 12 32 12C32.2652 12 32.5196 12.1054 32.7071 12.2929C32.8946 12.4804 33 12.7348 33 13V23C33 23.2652 32.8946 23.5196 32.7071 23.7071C32.5196 23.8946 32.2652 24 32 24C31.7348 24 31.4804 23.8946 31.2929 23.7071C31.1054 23.5196 31 23.2652 31 23ZM38.5462 13.1625C38.3242 13.0221 38.0557 12.9748 37.799 13.0308C37.5423 13.0867 37.3179 13.2414 37.1744 13.4615C37.0309 13.6816 36.9797 13.9493 37.032 14.2068C37.0842 14.4643 37.2358 14.6908 37.4538 14.8375C40.3425 16.7213 42 19.6962 42 23C42 25.6522 40.9464 28.1957 39.0711 30.0711C37.1957 31.9464 34.6522 33 32 33C29.3478 33 26.8043 31.9464 24.9289 30.0711C23.0536 28.1957 22 25.6522 22 23C22 19.6962 23.6575 16.7213 26.5463 14.8375C26.7642 14.6908 26.9157 14.4643 26.968 14.2068C27.0203 13.9493 26.9691 13.6816 26.8256 13.4615C26.6821 13.2414 26.4577 13.0867 26.201 13.0308C25.9443 12.9748 25.6758 13.0221 25.4537 13.1625C21.9875 15.4225 20 19.0075 20 23C20 26.1826 21.2643 29.2348 23.5147 31.4853C25.7652 33.7357 28.8174 35 32 35C35.1826 35 38.2348 33.7357 40.4853 31.4853C42.7357 29.2348 44 26.1826 44 23C44 19.0075 42.0125 15.4225 38.5462 13.1625Z" fill="black"/>
<path d="M29.5455 51.1818C29.5455 52.4356 29.3106 53.5095 28.8409 54.4034C28.375 55.2936 27.7386 55.9754 26.9318 56.4489C26.1288 56.9223 25.2178 57.1591 24.1989 57.1591C23.1799 57.1591 22.267 56.9223 21.4602 56.4489C20.6572 55.9716 20.0208 55.2879 19.5511 54.3977C19.0852 53.5038 18.8523 52.4318 18.8523 51.1818C18.8523 49.928 19.0852 48.8561 19.5511 47.9659C20.0208 47.072 20.6572 46.3883 21.4602 45.9148C22.267 45.4413 23.1799 45.2045 24.1989 45.2045C25.2178 45.2045 26.1288 45.4413 26.9318 45.9148C27.7386 46.3883 28.375 47.072 28.8409 47.9659C29.3106 48.8561 29.5455 49.928 29.5455 51.1818ZM27.4261 51.1818C27.4261 50.2992 27.2879 49.5549 27.0114 48.9489C26.7386 48.339 26.3598 47.8788 25.875 47.5682C25.3902 47.2538 24.8314 47.0966 24.1989 47.0966C23.5663 47.0966 23.0076 47.2538 22.5227 47.5682C22.0379 47.8788 21.6572 48.339 21.3807 48.9489C21.108 49.5549 20.9716 50.2992 20.9716 51.1818C20.9716 52.0644 21.108 52.8106 21.3807 53.4205C21.6572 54.0265 22.0379 54.4867 22.5227 54.8011C23.0076 55.1117 23.5663 55.267 24.1989 55.267C24.8314 55.267 25.3902 55.1117 25.875 54.8011C26.3598 54.4867 26.7386 54.0265 27.0114 53.4205C27.2879 52.8106 27.4261 52.0644 27.4261 51.1818ZM35.8679 48.2727V49.8636H30.7088V48.2727H35.8679ZM31.9986 57V47.4489C31.9986 46.8617 32.1198 46.3731 32.3622 45.983C32.6084 45.5928 32.938 45.3011 33.3509 45.108C33.7637 44.9148 34.2221 44.8182 34.7259 44.8182C35.0819 44.8182 35.3982 44.8466 35.6747 44.9034C35.9512 44.9602 36.1558 45.0114 36.2884 45.0568L35.8793 46.6477C35.7921 46.6212 35.6823 46.5947 35.5497 46.5682C35.4171 46.5379 35.2694 46.5227 35.1065 46.5227C34.724 46.5227 34.4531 46.6155 34.294 46.8011C34.1387 46.983 34.0611 47.2443 34.0611 47.5852V57H31.9986ZM41.8991 48.2727V49.8636H36.7401V48.2727H41.8991ZM38.0298 57V47.4489C38.0298 46.8617 38.151 46.3731 38.3935 45.983C38.6397 45.5928 38.9692 45.3011 39.3821 45.108C39.795 44.9148 40.2533 44.8182 40.7571 44.8182C41.1132 44.8182 41.4295 44.8466 41.706 44.9034C41.9825 44.9602 42.187 45.0114 42.3196 45.0568L41.9105 46.6477C41.8234 46.6212 41.7135 46.5947 41.581 46.5682C41.4484 46.5379 41.3007 46.5227 41.1378 46.5227C40.7552 46.5227 40.4844 46.6155 40.3253 46.8011C40.17 46.983 40.0923 47.2443 40.0923 47.5852V57H38.0298Z" fill="black"/>
<path d="M51.5895 67.5625C51.5895 67.6785 51.4314 67.7898 51.1501 67.8719C50.8688 67.9539 50.4873 68 50.0895 68H17.0895C16.6917 68 16.3101 67.9539 16.0288 67.8719C15.7475 67.7898 15.5895 67.6785 15.5895 67.5625C15.5895 67.4465 15.7475 67.3352 16.0288 67.2531C16.3101 67.1711 16.6917 67.125 17.0895 67.125H50.0895C50.4873 67.125 50.8688 67.1711 51.1501 67.2531C51.4314 67.3352 51.5895 67.4465 51.5895 67.5625Z" fill="#C60202"/>
</svg>
